<svg xmlns="http://www.w3.org/2000/svg" aria-hidden="true" style="position:absolute;width:0;height:0;overflow:hidden"><defs><symbol id="icon-antenna" viewBox="0 0 45 45"><path fill="#212121" d="m43.275 31.075-11.873-11.96 1.318-6.491c.34.133.702.202 1.067.205h.009a3.036 3.036 0 1 0-2.825-2.019l-6.975.851L12.618.224a.754.754 0 0 0-.529-.225.75.75 0 0 0-.525.218L9.437 2.332a.749.749 0 0 0 0 1.06l1.145 1.161a21.012 21.012 0 0 0 3.543 24.838c.06.057.13.104.206.137a4.412 4.412 0 0 0-.074.769v8.7h-9a3.754 3.754 0 0 0-3.75 3.75v1.5c0 .414.336.75.75.75h34.5a.75.75 0 0 0 .75-.75v-1.5a3.754 3.754 0 0 0-3.75-3.75h-9v-3.856c1.41.296 2.846.446 4.287.45a20.877 20.877 0 0 0 9.9-2.508l1.151 1.157c.14.142.33.223.53.225a.75.75 0 0 0 .525-.218l2.127-2.115a.75.75 0 0 0 0-1.061zM32.737 8.765a1.5 1.5 0 1 1 1.057 2.564h-.004a1.5 1.5 0 0 1-1.05-2.564h-.003zm-1.765 4.928-.842 4.142-1.653-1.663 2.494-2.479zm-.852-1.268-2.7 2.684-2.089-2.1 4.789-.584zM33.756 40.5a2.25 2.25 0 0 1 2.25 2.25v.75h-33v-.75a2.25 2.25 0 0 1 2.25-2.25h28.5zm-10.5-3V39h-7.5v-1.5h7.5zm-7.5-1.5v-5.7c0-1.819 1.682-3.3 3.75-3.3s3.75 1.481 3.75 3.3V36h-7.5zm9-2.385V30.3c0-2.647-2.355-4.8-5.25-4.8a5.342 5.342 0 0 0-4.614 2.512 19.503 19.503 0 0 1-3.204-22.341L37.847 31.98a19.439 19.439 0 0 1-13.091 1.636zm15.875-.962L11.02 2.868l1.061-1.057L23.24 13.033c.005 0 .008.01.013.013l18.442 18.55-1.064 1.058z" style="fill:var(--color1, #212121)"/><path fill="#2196f3" d="M19.513 28.5h-.007A2.25 2.25 0 1 0 19.5 33h.007a2.25 2.25 0 1 0 .006-4.5zm.525 2.782a.751.751 0 0 1-1.278-.536.753.753 0 0 1 .746-.746.75.75 0 0 1 .525 1.282h.007z" style="fill:var(--color2, #2196f3)"/></symbol><symbol id="icon-astronaut" viewBox="0 0 45 45"><path fill="#2196f3" d="M44.964 6.362a.751.751 0 0 0-.605-.51l-2.687-.391-1.202-2.435c-.252-.513-1.093-.513-1.345 0l-1.202 2.435-2.687.391a.751.751 0 0 0-.416 1.279l1.945 1.895-.459 2.676a.753.753 0 0 0 .298.734c.233.17.538.19.79.057l2.403-1.264 2.403 1.264a.748.748 0 0 0 .791-.057.748.748 0 0 0 .298-.733l-.459-2.676 1.945-1.895a.754.754 0 0 0 .19-.769zM41.5 8.228a.751.751 0 0 0-.215.664l.269 1.567-1.407-.74a.746.746 0 0 0-.7 0l-1.407.74.269-1.567a.752.752 0 0 0-.215-.664l-1.139-1.11 1.574-.229a.75.75 0 0 0 .565-.41l.703-1.425.703 1.425a.75.75 0 0 0 .565.41l1.574.229-1.138 1.11zM36.75 28.859h-1.5v1.5h1.5v-1.5zM36.75 31.859h-1.5v1.5h1.5v-1.5zM38.25 30.359h-1.5v1.5h1.5v-1.5zM35.25 30.359h-1.5v1.5h1.5v-1.5zM31.5 37.109H30v1.5h1.5v-1.5zM31.5 40.11H30v1.5h1.5v-1.5zM33 38.61h-1.5v1.5H33v-1.5zM30 38.61h-1.5v1.5H30v-1.5zM22.5 34.109H21v1.5h1.5v-1.5zM22.5 37.109H21v1.5h1.5v-1.5zM24 35.609h-1.5v1.5H24v-1.5zM21 35.609h-1.5v1.5H21v-1.5zM8.25 8.609h-1.5v1.5h1.5v-1.5zM8.25 11.609h-1.5v1.5h1.5v-1.5zM9.75 10.109h-1.5v1.5h1.5v-1.5zM6.75 10.109h-1.5v1.5h1.5v-1.5z" style="fill:var(--color2, #2196f3)"/><path fill="#212121" d="M34.755 19.912a2.496 2.496 0 0 0-1.671-.991 2.5 2.5 0 0 0-1.884.495l-1.761 1.35-2.669 1.993-1.91-.761c3.405-1.528 5.785-4.934 5.785-8.888 0-5.376-4.391-9.75-9.789-9.75s-9.789 4.374-9.789 9.75c0 1.949.583 3.761 1.575 5.285l-3.887-.034h-.007c-.012 0-.022.006-.033.007a.717.717 0 0 0-.218.044c-.018.007-.037.011-.054.019-.009.004-.018.004-.027.009l-4.547 2.245-.001.001-2.663 1.28a.721.721 0 0 0-.089.049 2.503 2.503 0 0 0 .644 4.478 2.501 2.501 0 0 0 1.938-.181l1.952-1.038 3.184-1.644 1.908-.011-7.652 7.616-.002.001-1.883 1.875c-.445.443-.689 1.03-.689 1.656s.245 1.214.689 1.658c.457.454 1.057.682 1.658.682s1.201-.228 1.66-.682l1.848-1.841 2.448-1.828 1.267 1.261-2.477 2.467-.002.002-1.883 1.875c-.445.443-.689 1.03-.689 1.656s.245 1.214.689 1.658c.457.454 1.058.683 1.659.683s1.202-.228 1.66-.683l4.896-4.875.001-.002 1.42-1.406-.005-.005c.009-.009.022-.012.031-.022l7.265-7.957 4.881.694a.74.74 0 0 0 .369-.046c.025-.009.046-.021.07-.033.027-.013.055-.021.081-.038l4.519-3c.017-.011.026-.029.041-.041.018-.014.041-.02.057-.036l1.788-1.675c.93-.872 1.059-2.3.298-3.321zM2.996 24.989a1 1 0 0 1-.785.073 1.005 1.005 0 0 1-.299-1.771l1.847-.889.631 1.846-1.395.742zm4.918-2.57-2.177 1.125-.617-1.805 2.85-1.407-.056 2.087zm21.233-9.31c0 1.292-.308 2.51-.842 3.599l-5.88-2.671a2.621 2.621 0 0 0-1.108-1.952l2.059-6.835c3.344 1.064 5.772 4.183 5.772 7.858zm-16.578 0c0-4.549 3.719-8.25 8.289-8.25.356 0 .703.03 1.048.073l-2.014 6.685c-.027-.001-.053-.008-.08-.008-1.452 0-2.633 1.177-2.633 2.625s1.181 2.625 2.633 2.625c.977 0 1.82-.539 2.276-1.328l5.432 2.468a8.285 8.285 0 0 1-6.661 3.361c-4.57 0-8.289-3.701-8.289-8.25zm8.376 1.125c0 .62-.509 1.125-1.133 1.125s-1.133-.505-1.133-1.125.508-1.125 1.133-1.125 1.133.505 1.133 1.125zM3.466 35.362a.855.855 0 0 1-1.201.001.834.834 0 0 1 0-1.188l1.353-1.348 1.197 1.192-1.348 1.342zm4.52 5.25a.855.855 0 0 1-1.202.001.834.834 0 0 1 0-1.187l1.354-1.349 1.198 1.192-1.349 1.343zm4.896-4.878-.002.001-2.482 2.475L9.2 37.018l2.479-2.468v-.001l.002-.001c.056-.056.091-.124.126-.19.01-.02.028-.036.037-.056.023-.058.027-.12.036-.181.004-.035.02-.067.02-.102 0-.05-.018-.099-.028-.148-.009-.045-.009-.091-.026-.134a.733.733 0 0 0-.128-.194c-.014-.017-.019-.038-.035-.053h-.001l-.001-.003-2.26-2.25c-.024-.024-.055-.034-.082-.054a.738.738 0 0 0-.122-.081.704.704 0 0 0-.131-.046.775.775 0 0 0-.145-.028c-.046-.003-.089.002-.134.007a.818.818 0 0 0-.146.028.701.701 0 0 0-.133.063c-.028.016-.059.021-.086.041l-2.494 1.862-1.267-1.262 3.374-3.356 6.132 6.031-1.304 1.292zm9.589-9.867c-.022-.003-.042.005-.064.004a.862.862 0 0 0-.286.04.819.819 0 0 0-.253.152c-.018.016-.04.023-.056.041l-6.607 7.236-6.086-5.986 3.984-3.963a.75.75 0 0 0-.534-1.281v-.001l-3.12.019.039-2.26 4.365.038a9.769 9.769 0 0 0 7.005 2.954c.615 0 1.215-.064 1.799-.173.056.045.112.091.182.119l3.389 1.35.465 2.311-4.222-.601zm5.683.25-.44-2.191 2.034-1.519 1.331 1.767-2.925 1.943zm5.278-3.981-1.178 1.104-1.309-1.738 1.169-.896c.218-.168.494-.236.764-.201a1.01 1.01 0 0 1 .555 1.732z" style="fill:var(--color1, #212121)"/><path fill="#212121" d="m19.128 26.078-3.014-3a.748.748 0 0 0-1.058 0l-3.013 3a.754.754 0 0 0 0 1.064l3.013 3a.75.75 0 0 0 1.059 0l3.014-3a.752.752 0 0 0 0-1.064zm-3.542 2.473-1.95-1.942 1.95-1.942 1.951 1.942-1.951 1.942zM24.137 7.131l-.362 1.457c.1.025 2.444.635 2.444 3.022h1.5c0-2.837-2.342-4.17-3.581-4.478zM27.719 13.109h-1.5v1.5h1.5v-1.5z" style="fill:var(--color1, #212121)"/></symbol><symbol id="icon-client1" viewBox="0 0 79 45"><path d="m28.5 5.25 5.256 4.976L24 10.22v24.14h25.5v-9.23l5.25 4.97V5.25H28.5zm20.769 19.296L34.367 10.438h14.902v14.108zm-4.627 6.283H28.035V14.593h1.174v15.136h15.433v1.099zm-12.685 6.745-.613 1.263-.613-1.263h-.515l.895 1.685v.981h.465v-.981l.894-1.685h-.513zm.771 2.666.216-.621h1.033l.218.621h.483l-1.009-2.666h-.416l-1.007 2.666h.482zm.732-2.1.386 1.106h-.773l.386-1.106zm2.443 1.042a.607.607 0 0 0-.101.339c0 .225.079.407.236.548.159.139.37.209.634.209s.491-.071.681-.214l.15.178h.516l-.392-.463c.154-.21.231-.479.231-.807h-.386c0 .179-.037.342-.112.489l-.515-.608.181-.132c.128-.093.22-.186.277-.278a.59.59 0 0 0 .084-.308.548.548 0 0 0-.187-.423.67.67 0 0 0-.476-.172c-.215 0-.386.061-.513.183-.127.121-.19.286-.19.494 0 .085.02.174.06.266.041.092.114.203.218.333-.198.142-.33.264-.397.368zm1.203.59a.68.68 0 0 1-.421.15c-.133 0-.239-.038-.319-.115s-.119-.177-.119-.3c0-.143.073-.27.22-.381l.057-.04.582.687zm-.478-1.181c-.126-.155-.189-.284-.189-.386 0-.089.026-.163.077-.222s.12-.088.207-.088c.081 0 .147.025.2.075a.233.233 0 0 1 .079.178.328.328 0 0 1-.114.258l-.057.046-.203.139zm4.339 1.448c.183-.16.288-.382.315-.667h-.461c-.024.19-.082.327-.174.408s-.228.123-.41.123a.517.517 0 0 1-.454-.227c-.103-.151-.154-.371-.154-.659v-.236c.002-.284.057-.5.165-.646a.543.543 0 0 1 .465-.222c.173 0 .305.043.394.128.09.084.146.222.168.414h.461c-.029-.292-.134-.518-.313-.677s-.416-.24-.71-.24c-.218 0-.411.052-.579.156-.166.104-.294.251-.383.443s-.134.413-.134.665v.249c.004.245.049.461.137.646s.212.329.373.43c.162.1.35.15.562.15.304 0 .548-.079.731-.238zm2.723-.374c.09-.198.136-.427.136-.688v-.148a1.616 1.616 0 0 0-.139-.683 1.014 1.014 0 0 0-.39-.45c-.167-.105-.359-.157-.577-.157s-.41.053-.579.159a1.044 1.044 0 0 0-.39.456 1.622 1.622 0 0 0-.137.688v.15c.001.255.048.48.139.676.093.195.223.346.392.452.17.105.363.157.579.157.218 0 .411-.053.579-.157.168-.106.298-.258.388-.454zm-.496-1.507c.112.157.168.384.168.679v.139c0 .3-.056.529-.167.685a.542.542 0 0 1-.472.234.553.553 0 0 1-.476-.24c-.114-.16-.17-.386-.17-.679v-.154c.002-.287.06-.508.172-.665a.55.55 0 0 1 .471-.236c.205 0 .363.079.474.236z" style="fill:"/></symbol><symbol id="icon-client2" viewBox="0 0 79 45"><path fill="" d="M37.585 4.451h-.102c-.157-.01-.315-.013-.472-.017h-.341c-.298 0-.601.008-.903.023a.386.386 0 0 0-.068 0 21.212 21.212 0 0 0-7.887 2.012l-.324.156v16.606l.759-.257a28.805 28.805 0 0 1 2.11-.626 25.76 25.76 0 0 1 6.071-.807v2.182c-.271.002-.535.01-.799.023h-.063a24.27 24.27 0 0 0-4.671.717 23.746 23.746 0 0 0-5.565 2.168V5.333a22.281 22.281 0 0 1 5.838-2.374 22.355 22.355 0 0 1 5.502-.709h.321c.383.01.757.027 1.108.053.925.065 1.842.211 2.742.437v2.147a17.033 17.033 0 0 0-2.656-.401l-.054-.005a6.461 6.461 0 0 0-.543-.032zm3.78 2.195c.476.036.97.053 1.469.053a23.58 23.58 0 0 0 5.785-.742 23.841 23.841 0 0 0 5.563-2.17v20.918a22.343 22.343 0 0 1-5.84 2.374c-1.798.462-3.646.7-5.502.708a16.822 16.822 0 0 1-4.174-.492V6.242c.323.074.655.143.992.2.554.093 1.138.162 1.708.204zm10.645.162-.759.256c-.698.235-1.402.444-2.11.631a25.74 25.74 0 0 1-6.305.809c-.495 0-.95-.013-1.391-.042l-.605-.04v17.083l.52.046c.482.042.979.063 1.48.063a20.143 20.143 0 0 0 4.965-.643 20.833 20.833 0 0 0 3.88-1.394l.324-.156V6.809zM26.803 33.909a1.127 1.127 0 0 0-.844-.342 1.256 1.256 0 0 0-.488.092 1.098 1.098 0 0 0-.625.631c-.059.15-.089.31-.087.471v2.846c-.007.2.032.4.112.584.067.146.164.276.285.381a.988.988 0 0 0 .391.202c.138.039.281.059.425.059.158.002.315-.032.459-.099.142-.062.271-.152.38-.263a1.228 1.228 0 0 0 .339-.835v-.318h-.744v.254a.667.667 0 0 1-.044.254.449.449 0 0 1-.108.16.516.516 0 0 1-.312.109.373.373 0 0 1-.349-.152.68.68 0 0 1-.099-.381v-2.653a.905.905 0 0 1 .091-.425.377.377 0 0 1 .365-.171.4.4 0 0 1 .332.16.602.602 0 0 1 .123.381v.246h.736v-.29a1.348 1.348 0 0 0-.091-.498 1.17 1.17 0 0 0-.249-.401zM31.222 33.877a1.325 1.325 0 0 0-.846-.313 1.32 1.32 0 0 0-.444.08 1.163 1.163 0 0 0-.681.632 1.322 1.322 0 0 0-.108.551v2.729c-.005.192.032.383.108.559.067.147.166.277.288.381.114.106.247.187.393.24a1.272 1.272 0 0 0 1.29-.24c.119-.106.214-.236.281-.381.076-.176.113-.367.108-.559v-2.729a1.322 1.322 0 0 0-.108-.551 1.24 1.24 0 0 0-.281-.399zm-.348 3.679a.484.484 0 0 1-.148.395.546.546 0 0 1-.7 0 .488.488 0 0 1-.148-.395v-2.729a.484.484 0 0 1 .148-.395.546.546 0 0 1 .7 0 .492.492 0 0 1 .148.395v2.729zM37.025 38.775v-5.167h-.715l-.939 2.735h-.013l-.947-2.735h-.708v5.167h.738v-3.143h.013l.723 2.222h.368l.729-2.222h.013v3.143h.738zM41.219 33.97a1.024 1.024 0 0 0-.417-.282 1.646 1.646 0 0 0-.535-.08H39.17v5.167h.736v-2.018h.379c.23.01.458-.038.664-.141.167-.093.307-.229.404-.395.085-.137.143-.29.169-.45a3.72 3.72 0 0 0 .04-.587 2.954 2.954 0 0 0-.072-.738 1.098 1.098 0 0 0-.271-.475zm-.38 1.576a.645.645 0 0 1-.068.269.416.416 0 0 1-.19.181.754.754 0 0 1-.347.065h-.336v-1.756h.379a.705.705 0 0 1 .332.065c.076.044.137.11.173.191.04.091.062.189.065.288v.343c0 .12.008.244 0 .355h-.008zM44.706 33.608h-.603l-1.138 5.167h.736l.216-1.11h1.004l.216 1.11h.736l-1.167-5.167zm-.68 3.353.362-1.873h.013l.361 1.873h-.736zM49.462 36.721h-.013l-1.112-3.113h-.708v5.167h.736v-3.107h.015l1.125 3.107h.692v-5.167h-.736v3.113zM53.961 33.608l-.592 2.054h-.015l-.592-2.054h-.78l1.011 2.983v2.184h.736v-2.184l1.011-2.983h-.78zM24.75 40.233h.355v.996h.241v-.996h.353v-.204h-.949v.204zM27.733 40.029l-.465 1.2h.256l.099-.273h.478l.102.273h.262l-.476-1.2h-.256zm-.038.725.163-.444.163.444h-.326zM30.681 40.787h.277v.155a.46.46 0 0 1-.285.101.298.298 0 0 1-.254-.114.497.497 0 0 1-.089-.313c0-.267.116-.401.345-.401a.255.255 0 0 1 .272.191l.237-.046c-.051-.235-.22-.353-.508-.353a.6.6 0 0 0-.419.155.596.596 0 0 0-.173.462.653.653 0 0 0 .154.45.574.574 0 0 0 .456.175.718.718 0 0 0 .508-.191v-.473h-.52v.202zM33.692 40.029h-.243v1.2h.84v-.204h-.598v-.996zM36.238 40.029h-.243v1.2h.243v-1.2zM38.727 40.83l-.491-.801h-.235v1.2h.226v-.784l.482.784h.241v-1.2h-.222v.801zM40.978 40.701h.598v-.204h-.598v-.263h.643v-.204h-.886v1.2h.911v-.204h-.668v-.324zM46.434 40.502h-.472v-.473h-.241v1.2h.241v-.524h.472v.524h.241v-1.2h-.241v.473zM48.698 40.701h.6v-.204h-.6v-.263h.645v-.204h-.886v1.2h.909v-.204h-.668v-.324zM51.767 40.701c.209-.032.315-.143.315-.334.006-.051-.002-.103-.022-.15s-.054-.088-.095-.117a.679.679 0 0 0-.351-.071h-.508v1.2h.241v-.502h.047a.323.323 0 0 1 .15.027.247.247 0 0 1 .085.088l.262.381h.288l-.146-.235a.844.844 0 0 0-.266-.288zm-.242-.166h-.178v-.301h.19a.617.617 0 0 1 .245.029c.018.016.031.035.041.056s.013.045.012.068a.154.154 0 0 1-.065.119.699.699 0 0 1-.245.029zM54.082 40.701h.598v-.204h-.598v-.263h.645v-.204h-.888v1.2h.911v-.204h-.668v-.324z" style="fill:"/></symbol><symbol id="icon-client3" viewBox="0 0 79 45"><path d="M27.305 36.826c.012 0 .024.003.035.007s.021.01.029.018l.164.156a1.341 1.341 0 0 1-.46.297 1.796 1.796 0 0 1-.652.107c-.21.004-.419-.03-.614-.1a1.34 1.34 0 0 1-.462-.281 1.261 1.261 0 0 1-.299-.434 1.444 1.444 0 0 1-.104-.556 1.292 1.292 0 0 1 .429-.992c.14-.122.307-.219.491-.283.201-.068.416-.102.632-.1.201-.004.4.027.587.091.162.061.311.146.44.251l-.137.167a.114.114 0 0 1-.035.03.088.088 0 0 1-.055.012.12.12 0 0 1-.059-.018l-.074-.044-.102-.057a1.088 1.088 0 0 0-.323-.099 1.413 1.413 0 0 0-.243-.018 1.311 1.311 0 0 0-.454.075.956.956 0 0 0-.587.544 1.12 1.12 0 0 0-.084.441c-.002.152.026.304.084.448a.937.937 0 0 0 .566.538c.134.048.277.072.421.071a1.88 1.88 0 0 0 .249-.014.98.98 0 0 0 .54-.229.126.126 0 0 1 .078-.028zM32.028 36.04c.003.189-.035.376-.11.553-.067.16-.172.307-.308.429s-.301.219-.483.282c-.4.133-.843.133-1.243 0a1.423 1.423 0 0 1-.481-.283 1.264 1.264 0 0 1-.311-.434 1.445 1.445 0 0 1 0-1.107 1.3 1.3 0 0 1 .311-.435c.137-.118.301-.211.481-.272.4-.135.843-.135 1.243 0 .182.064.346.16.483.283.135.123.24.269.309.428.076.178.113.366.11.556zm-.429 0a1.169 1.169 0 0 0-.078-.444.903.903 0 0 0-.565-.542 1.44 1.44 0 0 0-.904 0 .966.966 0 0 0-.346.21.896.896 0 0 0-.221.332 1.303 1.303 0 0 0 0 .888.896.896 0 0 0 .221.332.962.962 0 0 0 .346.208c.291.095.612.095.904 0a.97.97 0 0 0 .346-.208.946.946 0 0 0 .219-.332c.055-.143.081-.293.078-.444zM35.251 36.506l.043.1a2.39 2.39 0 0 1 .1-.198l1.045-1.65c.02-.028.039-.046.059-.052a.31.31 0 0 1 .086-.009h.309v2.684h-.366v-2.057a.706.706 0 0 1 0-.092l-1.051 1.674c-.013.025-.035.046-.062.061s-.058.023-.09.022h-.059c-.032 0-.063-.007-.09-.022s-.048-.036-.061-.061l-1.082-1.684v2.155h-.354v-2.679h.309a.277.277 0 0 1 .086.009.112.112 0 0 1 .057.052l1.067 1.652a.566.566 0 0 1 .053.096zM39.183 36.373v1.006h-.409v-2.681h.912c.172-.003.344.017.509.059.132.033.255.09.36.167a.7.7 0 0 1 .205.263.817.817 0 0 1 .07.343.737.737 0 0 1-.297.611 1.047 1.047 0 0 1-.362.178 1.737 1.737 0 0 1-.493.062l-.495-.007zm0-.288h.495c.107.001.214-.013.317-.041a.705.705 0 0 0 .229-.115.51.51 0 0 0 .188-.404c.005-.075-.009-.149-.041-.218s-.081-.132-.143-.183a.88.88 0 0 0-.55-.144h-.495v1.105zM44.68 37.382h-.323a.157.157 0 0 1-.09-.025.174.174 0 0 1-.053-.062l-.278-.649h-1.397l-.288.649a.14.14 0 0 1-.051.06.155.155 0 0 1-.092.027h-.323l1.227-2.685h.425l1.243 2.685zm-2.025-.997h1.153l-.487-1.093a1.814 1.814 0 0 1-.092-.252l-.047.14a1.236 1.236 0 0 1-.045.114l-.483 1.091zM46.447 34.71a.18.18 0 0 1 .061.048l1.789 2.024v-2.084h.366v2.685h-.204a.2.2 0 0 1-.084-.016.23.23 0 0 1-.065-.05l-1.787-2.022a.706.706 0 0 1 0 .092v1.996h-.366v-2.685h.217a.209.209 0 0 1 .074.012zM51.677 36.314v1.066h-.409v-1.066l-1.131-1.617h.366a.147.147 0 0 1 .088.023.24.24 0 0 1 .055.06l.707 1.043c.029.044.053.085.074.124s.037.076.051.114l.053-.115a.945.945 0 0 1 .07-.123l.697-1.05a.317.317 0 0 1 .053-.057.142.142 0 0 1 .088-.027h.37l-1.133 1.624zM35.048 30.192c.178.02.358.036.54.05 2.759-1.072 5.093-2.828 6.711-5.046s2.446-4.802 2.383-7.428l-3.041-2.642c.618 2.795.329 5.685-.835 8.346s-3.158 4.988-5.757 6.72z" style="fill:"/><path d="m33.963 30.069.082.014c2.778-1.726 4.896-4.137 6.08-6.92s1.38-5.811.562-8.693l-4.331-3.763c1.752 3.093 2.457 6.555 2.033 9.982s-1.958 6.68-4.426 9.38zM48.651 20.87c-.736 2.885-2.523 5.487-5.096 7.419a16.237 16.237 0 0 1-2.421 1.51c2.095-.535 4.021-1.481 5.629-2.765s2.855-2.871 3.645-4.64l-1.756-1.524z" style="fill:"/><path d="m47.962 20.445-2.501-2.173c-.048 2.477-.858 4.898-2.348 7.011s-3.602 3.841-6.12 5.004h.012c.561 0 1.122-.029 1.679-.087 2.353-.834 4.432-2.162 6.051-3.864s2.727-3.726 3.227-5.891zM34.325 9.121l-2.983-2.596c-2.667.895-4.961 2.47-6.581 4.517s-2.492 4.471-2.5 6.955c.01 2.745 1.073 5.409 3.022 7.57s4.671 3.695 7.736 4.361c2.736-2.896 4.338-6.476 4.573-10.217s-.909-7.451-3.267-10.589zM54.855 20.045c-.011-3.257-1.505-6.378-4.155-8.681s-6.242-3.601-9.991-3.61a15.867 15.867 0 0 0-5.065.819l18.267 15.871c.625-1.403.946-2.894.945-4.399z" style="fill:"/></symbol><symbol id="icon-client4" viewBox="0 0 79 45"><path d="M18.11 15.827h-.002c-1.799 0-3.256 1.296-3.256 2.894v.002c0 1.598 1.458 2.894 3.256 2.894h.002c1.799 0 3.256-1.296 3.256-2.894v-.002c0-1.598-1.458-2.894-3.256-2.894zM42.146 14.902c-.005-2.22-1-4.348-2.766-5.918s-4.16-2.454-6.658-2.459c-2.499.004-4.894.888-6.661 2.458s-2.762 3.698-2.767 5.919v12.242s18.85-1.866 18.852-12.24v-.002zM8.25 31.162c.004 1.545.697 3.025 1.926 4.117s2.894 1.708 4.632 1.713c1.738-.005 3.403-.62 4.632-1.712s1.921-2.572 1.927-4.116v-8.518S8.251 23.945 8.251 31.162zm6.558 1.526c-.34 0-.672-.089-.954-.257s-.503-.406-.632-.685c-.13-.279-.164-.586-.098-.882s.23-.568.47-.781c.24-.213.546-.359.879-.418s.678-.029.992.087c.314.115.582.311.771.562s.289.546.289.848c.001.201-.043.4-.129.586s-.212.355-.372.497c-.16.142-.349.255-.558.332s-.433.117-.659.117v-.006zM28.063 31.848h-1.266v1.307h-.659v-3.199h2.083v.534h-1.424v.826h1.266v.532zm3.169-.22c0 .315-.056.591-.167.828s-.271.42-.479.549a1.315 1.315 0 0 1-.712.193c-.265 0-.502-.064-.71-.191s-.369-.309-.483-.545a1.894 1.894 0 0 1-.174-.817v-.158c0-.315.056-.592.169-.831.114-.24.275-.424.481-.552.208-.129.445-.193.712-.193s.503.064.71.193c.208.127.368.311.481.552.114.239.171.515.171.828v.143zm-.668-.145c0-.335-.06-.59-.18-.765s-.292-.261-.514-.261a.586.586 0 0 0-.512.259c-.12.171-.181.423-.182.756v.156c0 .327.06.58.18.76s.293.27.519.27a.582.582 0 0 0 .51-.259c.119-.174.179-.428.18-.76v-.156zm2.806.833a.337.337 0 0 0-.132-.286c-.088-.067-.246-.138-.475-.211a3.44 3.44 0 0 1-.543-.22c-.363-.196-.545-.461-.545-.793 0-.173.048-.327.145-.461a.965.965 0 0 1 .42-.319 1.59 1.59 0 0 1 .615-.114c.229 0 .432.042.611.125a.953.953 0 0 1 .415.349c.1.151.149.322.149.514h-.659a.43.43 0 0 0-.138-.341c-.092-.082-.222-.123-.389-.123-.161 0-.286.034-.376.103a.32.32 0 0 0-.134.268c0 .104.052.191.156.261.105.07.26.136.464.198.375.113.648.253.82.42s.257.375.257.624a.775.775 0 0 1-.314.653c-.209.157-.491.235-.846.235-.246 0-.47-.045-.672-.134a1.087 1.087 0 0 1-.464-.371.949.949 0 0 1-.158-.545h.661c0 .353.211.53.633.53a.628.628 0 0 0 .367-.094.313.313 0 0 0 .132-.268zm3.517-1.826h-.98v2.665h-.659V30.49h-.967v-.534h2.606v.534zm2.303 1.279h-1.266v.857h1.485v.529h-2.145v-3.199h2.14v.534h-1.481v.762h1.266v.516zm1.791.215h-.525v1.171h-.659v-3.199h1.189c.378 0 .669.084.875.253s.308.406.308.714a.985.985 0 0 1-.143.547.964.964 0 0 1-.428.347l.692 1.307v.031h-.708l-.6-1.171zm-.525-.534h.532c.166 0 .294-.042.385-.125a.454.454 0 0 0 .136-.349.478.478 0 0 0-.13-.356c-.085-.086-.216-.13-.393-.13h-.53v.96zm3.994.578v1.127h-.659v-3.199h1.248c.24 0 .451.044.633.132a.967.967 0 0 1 .422.376c.098.161.147.345.147.552 0 .314-.108.561-.323.743-.214.18-.511.27-.89.27h-.578zm0-.534h.589c.174 0 .307-.041.398-.123.092-.082.138-.199.138-.352 0-.157-.046-.283-.138-.38s-.22-.146-.382-.149h-.604v1.004zm4.171.275h-1.266v.857h1.485v.529h-2.145v-3.199h2.14v.534h-1.481v.762h1.266v.516zm3.058-1.279h-.98v2.665h-.659V30.49h-.967v-.534h2.606v.534zm2.303 1.279h-1.266v.857h1.485v.529h-2.144v-3.199h2.14v.534h-1.481v.762h1.266v.516zm1.791.215h-.525v1.171h-.659v-3.199h1.189c.378 0 .669.084.875.253s.308.406.308.714a.985.985 0 0 1-.143.547.964.964 0 0 1-.428.347l.692 1.307v.031h-.707l-.6-1.171zm-.525-.534h.532c.166 0 .294-.042.385-.125a.454.454 0 0 0 .136-.349.478.478 0 0 0-.13-.356c-.085-.086-.216-.13-.393-.13h-.529v.96zm3.874.866a.337.337 0 0 0-.132-.286c-.088-.067-.246-.138-.475-.211a3.44 3.44 0 0 1-.543-.22c-.363-.196-.545-.461-.545-.793 0-.173.048-.327.145-.461a.965.965 0 0 1 .42-.319 1.59 1.59 0 0 1 .615-.114c.229 0 .432.042.611.125a.953.953 0 0 1 .415.349c.1.151.149.322.149.514h-.659a.43.43 0 0 0-.138-.341c-.092-.082-.222-.123-.389-.123-.161 0-.286.034-.376.103a.32.32 0 0 0-.134.268c0 .104.052.191.156.261.105.07.26.136.464.198.375.113.648.253.82.42s.257.375.257.624a.775.775 0 0 1-.314.653c-.209.157-.491.235-.846.235-.246 0-.47-.045-.672-.134a1.087 1.087 0 0 1-.464-.371.956.956 0 0 1-.158-.545h.661c0 .353.211.53.633.53a.628.628 0 0 0 .367-.094.313.313 0 0 0 .132-.268z" style="fill:"/></symbol><symbol id="icon-client5" viewBox="0 0 79 45"><path d="M20.068 33.551c.183.207.28.466.275.733.009.174-.024.347-.098.507s-.186.303-.328.418a1.977 1.977 0 0 1-1.239.338H16.5v-4.644h2.133c.421-.026.839.083 1.182.308.138.106.247.239.319.39s.104.315.095.479c.013.256-.075.508-.248.71a1.185 1.185 0 0 1-.649.363c.289.048.55.189.736.397zm-2.555-.701h.912a.927.927 0 0 0 .58-.154c.068-.057.122-.127.156-.206s.048-.163.04-.248a.54.54 0 0 0-.193-.454.946.946 0 0 0-.597-.157h-.897v1.218zm1.581 1.781c.073-.058.131-.131.168-.213s.054-.17.047-.259c.006-.09-.011-.179-.05-.262s-.097-.156-.171-.215a1.002 1.002 0 0 0-.619-.168h-.956v1.277h.969c.218.012.434-.045.612-.161zM24.428 35.548l-1.187-1.815h-.446v1.815h-1.021v-4.644h1.932a2.02 2.02 0 0 1 1.345.395c.27.252.433.584.459.936s-.086.702-.316.985a1.61 1.61 0 0 1-.922.472l1.264 1.856h-1.11zM22.795 33.1h.835c.58 0 .87-.234.87-.703.006-.096-.01-.192-.047-.281s-.093-.172-.166-.24a.963.963 0 0 0-.657-.188h-.845l.01 1.413zM30.008 34.613h-2.034l-.359.935h-1.07l1.868-4.591h1.157l1.861 4.591h-1.07l-.352-.935zm-.273-.703-.743-1.96-.743 1.96h1.486zM36.992 35.548h-1.013l-2.272-3.158v3.158h-1.011v-4.644h1.011l2.272 3.176v-3.176h1.013v4.644zM42.774 34.436c-.21.351-.529.636-.917.819a3.23 3.23 0 0 1-1.425.293h-1.804v-4.644h1.804c.493-.012.982.086 1.425.286.388.179.707.461.917.81.209.378.317.795.317 1.218s-.109.841-.317 1.218zm-1.159-.111c.289-.308.448-.702.448-1.108s-.159-.8-.448-1.108a1.872 1.872 0 0 0-1.269-.395h-.704v3.006h.704c.463.026.919-.115 1.269-.395zM30.642 5.075s13.079 4.521 12.802 11.063v11.066s-13.069-4.523-12.797-11.066l-.005-11.063zM55.095 24.614c2.47-1.556 5.327-2.521 8.31-2.804v-3.464c-3.436 1.213-6.352 3.412-8.31 6.268z" style="fill:"/><path fill="" d="M53.611 25.657c2.022-3.727 5.527-6.604 9.794-8.037V7.639s-18.626 6.44-18.232 15.757v15.755s.83-.288 2.136-.828c0-.504 0-1.012.059-1.522.385-4.325 2.631-8.333 6.243-11.143z" style="fill:"/><path fill="" d="M51.84 31.51c.098-1.093.316-2.173.652-3.226-2.249 2.426-3.611 5.437-3.895 8.609-.027.299-.042.599-.05.907a56.092 56.092 0 0 0 3.583-1.729 14.95 14.95 0 0 1-.29-4.562zM52.581 31.567a14.291 14.291 0 0 0 .23 4.131c5.089-2.788 10.807-7.096 10.587-12.302v-.454c-3.636.372-7.037 1.828-9.682 4.142a14.446 14.446 0 0 0-1.135 4.483z" style="fill:"/></symbol><symbol id="icon-client6" viewBox="0 0 79 45"><path d="M40.069 20.556a2.216 2.216 0 0 1-.454-1.491v-2.162c0-.663.15-1.167.451-1.511s.817-.516 1.549-.515c.688 0 1.176.147 1.465.44.315.374.468.832.433 1.293v.508h-1.231v-.515a2.666 2.666 0 0 0-.036-.504.488.488 0 0 0-.176-.299.717.717 0 0 0-.446-.117.753.753 0 0 0-.469.123.576.576 0 0 0-.204.33 2.472 2.472 0 0 0-.048.535v2.624c-.019.253.035.507.158.737.061.078.146.14.246.179s.209.053.317.041a.674.674 0 0 0 .436-.119.526.526 0 0 0 .183-.319 2.81 2.81 0 0 0 .038-.526v-.532h1.231v.486c.035.481-.115.959-.425 1.359-.283.321-.764.482-1.473.482s-1.243-.172-1.547-.528zM45.193 20.578c-.311-.337-.466-.827-.466-1.476v-2.275c0-.642.155-1.128.466-1.458s.831-.494 1.559-.493c.724 0 1.241.164 1.552.493.311.33.469.816.469 1.458v2.275c0 .642-.158 1.135-.474 1.474s-.831.508-1.547.508-1.246-.172-1.559-.506zm2.132-.545c.111-.211.162-.442.148-.673v-2.785a1.247 1.247 0 0 0-.145-.66c-.062-.08-.15-.142-.251-.181s-.214-.052-.325-.039c-.111-.013-.223 0-.325.039s-.19.101-.253.181a1.21 1.21 0 0 0-.148.66v2.798c-.016.231.035.463.148.673.072.071.16.128.26.167a.869.869 0 0 0 .632 0 .774.774 0 0 0 .26-.167v-.013zM50.253 14.943h1.325l.996 4.197 1.019-4.197h1.289l.13 6.058h-.953l-.102-4.21-.983 4.21h-.764l-1.019-4.225-.094 4.225h-.963l.12-6.058zM56.498 14.943h2.064c1.189 0 1.784.573 1.784 1.72 0 1.098-.626 1.647-1.878 1.645h-.703V21h-1.274l.008-6.058zm1.763 2.589c.126.014.254.004.375-.029s.232-.088.326-.162a.978.978 0 0 0 .183-.684 1.893 1.893 0 0 0-.061-.55c-.018-.06-.05-.117-.094-.166s-.098-.091-.161-.122a1.333 1.333 0 0 0-.568-.097h-.494v1.81h.494zM62.182 14.943h1.368l1.404 6.058h-1.187l-.278-1.397h-1.22l-.285 1.397h-1.205l1.404-6.058zm1.17 3.959-.476-2.543-.476 2.543h.953zM66.088 14.943h.892l1.707 3.455v-3.455h1.057v6.058h-.848l-1.717-3.607v3.607h-1.093l.003-6.058zM72.221 18.691l-1.419-3.739h1.195l.866 2.402.813-2.402h1.169l-1.401 3.739v2.31h-1.223v-2.31zM42.036 23.649v.317h-1.039v2.461h-.436v-2.461h-1.045v-.317h2.52zM45.295 26.427h-.336a.152.152 0 0 1-.094-.026.144.144 0 0 1-.056-.064l-.301-.66h-1.442l-.301.66a.184.184 0 0 1-.046.075.154.154 0 0 1-.094.026h-.336l1.274-2.778h.443l1.289 2.767zm-2.11-1.031h1.203l-.51-1.131a1.952 1.952 0 0 1-.094-.262l-.048.147-.046.117-.505 1.128zM47.491 26.154a1.399 1.399 0 0 0 .443-.033c.062-.013.124-.03.183-.051.056-.02.112-.044.171-.068v-.625h-.51a.109.109 0 0 1-.069-.022c-.008-.006-.015-.014-.019-.023s-.007-.018-.006-.028v-.213h.989v1.065a1.92 1.92 0 0 1-.538.227 2.266 2.266 0 0 1-.319.057 3.86 3.86 0 0 1-.372.018 1.928 1.928 0 0 1-.642-.103 1.574 1.574 0 0 1-.51-.29 1.341 1.341 0 0 1-.329-.44c-.08-.184-.12-.38-.117-.576a1.428 1.428 0 0 1 .115-.581c.073-.165.185-.314.329-.44.145-.125.319-.223.51-.288.218-.071.45-.106.683-.103.119 0 .237.008.354.024.104.015.205.038.303.07.089.029.175.066.255.11.078.043.152.092.222.145l-.122.172c-.01.016-.024.029-.041.038s-.037.014-.058.015a.164.164 0 0 1-.079-.022 1.989 1.989 0 0 1-.125-.066 1.195 1.195 0 0 0-.171-.075 1.678 1.678 0 0 0-.234-.062 1.947 1.947 0 0 0-.324-.024 1.512 1.512 0 0 0-.492.077c-.142.049-.27.124-.375.22a.966.966 0 0 0-.237.345 1.296 1.296 0 0 0 0 .926c.056.131.143.25.255.35.104.095.231.17.372.22.162.048.334.067.504.055zM51.552 26.11h1.391v.317h-1.817v-2.778h.436l-.01 2.462zM54.391 26.427h-.436v-2.778h.436v2.778zM56.011 23.662c.026.013.048.03.066.051l1.862 2.094a.817.817 0 0 1 0-.099v-2.07h.38v2.789H58.1a.214.214 0 0 1-.094-.015.259.259 0 0 1-.069-.053l-1.86-2.092v2.161h-.364V23.65h.227c.025 0 .049.005.071.013zM61.527 23.649v.306h-1.544v.917h1.251v.295h-1.251v.948h1.544v.306h-1.992v-2.772h1.992zM15.871 6.492l19.346 4.742v16.618l-19.346-4.74V6.491zM14.63 5.075V23.92l21.825 5.352V10.43L14.63 5.076z" style="fill:"/><path fill="" d="M26.328 38.019 4.5 32.663V13.82l21.828 5.354v18.845z" style="fill:"/><path fill="" d="m14.992 6.278 19.094 4.683-8.12 7.012-19.097-4.685 8.123-7.01zm-.362-1.203L4.5 13.821l21.828 5.354 10.128-8.746-21.825-5.354zM27.556 36.959l8.9-7.685-8.9-2.184v9.87z" style="fill:"/></symbol><symbol id="icon-clock" viewBox="0 0 45 45"><path fill="#212121" d="M44.011 21.517C44.009 9.631 34.371-.003 22.484 0S.964 9.64.967 21.527a21.523 21.523 0 0 0 14.976 20.498.84.84 0 0 0 .263.04.95.95 0 0 0 .482-.132.893.893 0 0 0 .398-.501l5.435-17.227a2.69 2.69 0 1 0-1.181-5.112l-7.18-7.181a.897.897 0 0 0-1.268 1.268l7.176 7.185a2.638 2.638 0 0 0 .754 3.247l-5.179 16.415C5.409 36.257.168 24.904 3.938 14.67S19.061-.805 29.295 2.965 44.77 18.088 41 28.322a19.75 19.75 0 0 1-10.494 11.213l-.56-2.636a.896.896 0 0 0-1.474-.483l-5.396 4.817a.896.896 0 0 0 .325 1.524l6.889 2.199a.897.897 0 0 0 1.152-1.041l-.55-2.586a21.454 21.454 0 0 0 13.119-19.813zm-21.522-.896a.898.898 0 1 1-.001 1.795.898.898 0 0 1 .001-1.795zm2.954 20.902 3.071-2.74.848 3.994-3.919-1.254z" style="fill:var(--color1, #212121)"/><path fill="#2196f3" d="M21.592 4.479v1.793a.897.897 0 1 0 1.794 0V4.479a.898.898 0 0 0-1.794 0zM5.451 20.621a.898.898 0 0 0 0 1.794h1.793a.897.897 0 1 0 0-1.794H5.451zM39.527 22.414a.897.897 0 1 0 0-1.794h-1.793a.898.898 0 0 0 0 1.794h1.793z" style="fill:var(--color2, #2196f3)"/></symbol><symbol id="icon-diagram" viewBox="0 0 45 45"><path fill="#2196f3" d="M20.989 21.044h1.499v6.746h-1.499v-6.746zM26.986 24.042h1.499v3.748h-1.499v-3.748zM14.992 26.291h1.499v1.499h-1.499v-1.499zM10.495 25.542h1.499v2.249h-1.499v-2.249z" style="fill:var(--color2, #2196f3)"/><path fill="#212121" d="M2.249 39.784H38.23a2.25 2.25 0 0 0 2.249-2.249v-2.998a2.25 2.25 0 0 0-2.249-2.249h-.75V13.594l4.258-4.034a2.262 2.262 0 1 0-1.05-1.073l-3.208 3.041V9.799a2.25 2.25 0 0 0-2.249-2.249H5.247a2.25 2.25 0 0 0-2.249 2.249v22.488h-.75a2.25 2.25 0 0 0-2.249 2.249v2.998a2.25 2.25 0 0 0 2.249 2.249zM42.728 6.801a.75.75 0 1 1 0 1.5.75.75 0 0 1 0-1.5zM4.498 9.8a.75.75 0 0 1 .75-.75h29.984a.75.75 0 0 1 .75.75v3.148l-1.499 1.424v-3.073a.75.75 0 0 0-.75-.75H6.747a.75.75 0 0 0-.75.75v18.74c0 .414.336.75.75.75h26.986a.75.75 0 0 0 .75-.75V16.434l1.499-1.421v17.274H4.498V9.799zm6.746 9.745a2.248 2.248 0 1 0 1.557 3.864l2.606 1.307a.75.75 0 0 0 .895-.172l5.539-6.231 5.445 4.08c.292.219.7.195.965-.055l4.732-4.483v11.434H7.496V12.048h25.487v3.741l-5.304 5.023-5.491-4.116a.75.75 0 0 0-1.01.101l-5.615 6.318-2.099-1.05a2.26 2.26 0 0 0 .029-.272 2.25 2.25 0 0 0-2.249-2.249zm.75 2.249a.75.75 0 1 1-1.5 0 .75.75 0 0 1 1.5 0zm4.497 11.993h7.496v.75a.75.75 0 0 1-.75.75H17.24a.75.75 0 0 1-.75-.75v-.75zm-14.992.75a.75.75 0 0 1 .75-.75h12.743v.75a2.25 2.25 0 0 0 2.249 2.249h5.997a2.25 2.25 0 0 0 2.249-2.249v-.75H38.23a.75.75 0 0 1 .75.75v2.998a.75.75 0 0 1-.75.75H2.249a.75.75 0 0 1-.75-.75v-2.998z" style="fill:var(--color1, #212121)"/></symbol><symbol id="icon-envelope" viewBox="0 0 60 45"><path d="M54.375 0H5.625A5.63 5.63 0 0 0 0 5.625v33.75A5.63 5.63 0 0 0 5.625 45h48.75A5.63 5.63 0 0 0 60 39.375V5.625A5.63 5.63 0 0 0 54.375 0zm0 3.75c.255 0 .497.053.719.145L30 25.644 4.906 3.895c.222-.092.464-.145.719-.145h48.75zm0 37.5H5.625a1.876 1.876 0 0 1-1.875-1.875V7.857l25.021 21.685a1.873 1.873 0 0 0 2.458 0L56.25 7.857v31.518c0 1.035-.84 1.875-1.875 1.875z" style="fill:"/></symbol><symbol id="icon-facebook" viewBox="0 0 45 45"><path d="M29.994 7.472h4.108V.317C33.393.219 30.956 0 28.117 0c-5.923 0-9.981 3.726-9.981 10.573v6.302H11.6v7.999h6.536V45h8.014V24.876h6.272l.996-7.999h-7.269v-5.511c.002-2.312.624-3.894 3.845-3.894z" style="fill:"/></symbol><symbol id="icon-instagram" viewBox="0 0 45 45"><path d="M44.956 13.23c-.105-2.391-.492-4.035-1.046-5.459a10.996 10.996 0 0 0-2.602-3.991 11.065 11.065 0 0 0-3.982-2.593C35.893.633 34.258.246 31.867.141 29.458.027 28.693 0 22.584 0S15.71.026 13.31.132c-2.391.105-4.035.492-5.459 1.046A10.983 10.983 0 0 0 3.86 3.78a11.078 11.078 0 0 0-2.593 3.982C.713 9.195.326 10.83.221 13.221.107 15.63.08 16.395.08 22.504s.026 6.874.132 9.274c.105 2.391.492 4.035 1.046 5.459a11.087 11.087 0 0 0 2.602 3.991 11.065 11.065 0 0 0 3.982 2.593c1.433.554 3.068.941 5.459 1.046 2.4.106 3.165.132 9.274.132s6.874-.026 9.274-.132c2.391-.105 4.035-.492 5.459-1.046a11.513 11.513 0 0 0 6.585-6.584c.553-1.433.941-3.068 1.046-5.459.105-2.4.132-3.165.132-9.274s-.009-6.874-.115-9.274zm-4.052 18.373c-.097 2.198-.466 3.384-.774 4.176a7.468 7.468 0 0 1-4.273 4.273c-.791.308-1.987.677-4.176.773-2.374.106-3.085.132-9.09.132s-6.725-.026-9.09-.132c-2.198-.097-3.384-.466-4.176-.773a6.909 6.909 0 0 1-2.584-1.679 6.997 6.997 0 0 1-1.679-2.584c-.308-.791-.677-1.987-.773-4.176-.106-2.374-.132-3.086-.132-9.09s.026-6.725.132-9.089c.096-2.198.466-3.384.773-4.176A6.846 6.846 0 0 1 6.75 6.673a6.98 6.98 0 0 1 2.584-1.679c.791-.308 1.987-.677 4.176-.774 2.373-.105 3.086-.132 9.09-.132 6.013 0 6.725.026 9.09.132 2.198.097 3.384.466 4.176.774.975.36 1.863.932 2.584 1.679a7.005 7.005 0 0 1 1.679 2.585c.308.791.677 1.987.774 4.176.106 2.373.132 3.085.132 9.089s-.026 6.707-.132 9.081z" style="fill:"/><path fill="" d="M22.583 10.944c-6.382 0-11.56 5.178-11.56 11.56s5.178 11.56 11.56 11.56c6.382 0 11.56-5.177 11.56-11.56s-5.178-11.56-11.56-11.56zm0 19.059a7.5 7.5 0 1 1 .001-14.997 7.5 7.5 0 0 1-.001 14.997zM37.299 10.487a2.7 2.7 0 1 1-5.398 0 2.7 2.7 0 0 1 5.398 0z" style="fill:"/></symbol><symbol id="icon-linkedin" viewBox="0 0 45 45"><path d="M44.989 45v-.002H45V28.494c0-8.074-1.738-14.293-11.177-14.293-4.538 0-7.582 2.49-8.826 4.851h-.131v-4.097h-8.949v30.043h9.319V30.122c0-3.917.742-7.704 5.593-7.704 4.779 0 4.851 4.47 4.851 7.956v14.627h9.309zM.743 14.957h9.33V45H.743V14.957zM5.404 0C2.421 0 0 2.421 0 5.404s2.421 5.454 5.404 5.454 5.404-2.471 5.404-5.454A5.408 5.408 0 0 0 5.404 0z" style="fill:)"/></symbol><symbol id="icon-smartphone" viewBox="0 0 28 45"><path d="M23.906 0H4.218A4.224 4.224 0 0 0-.001 4.219v36.563a4.223 4.223 0 0 0 4.219 4.219h19.688a4.224 4.224 0 0 0 4.219-4.219V4.219A4.224 4.224 0 0 0 23.906 0zM4.219 2.813h19.688c.776 0 1.406.63 1.406 1.406V33.75h-22.5V4.219c0-.776.63-1.406 1.406-1.406zm19.687 39.375H4.218c-.776 0-1.406-.63-1.406-1.406v-4.219h22.5v4.219c0 .776-.63 1.406-1.406 1.406z" style="fill:"/><path d="M6.619 38.641c.549.513.549 1.344 0 1.857s-1.44.513-1.989 0c-.549-.513-.549-1.344 0-1.857s1.44-.513 1.989 0z" style=""/></symbol><symbol id="icon-twitter" viewBox="0 0 45 45"><path d="M45 8.547a19.227 19.227 0 0 1-5.316 1.457 9.17 9.17 0 0 0 4.058-5.099 18.438 18.438 0 0 1-5.85 2.233 9.243 9.243 0 0 0-6.739-2.919c-5.107 0-9.219 4.146-9.219 9.228a9.5 9.5 0 0 0 .214 2.104c-7.67-.374-14.456-4.05-19.015-9.65a9.289 9.289 0 0 0-1.263 4.663 9.238 9.238 0 0 0 4.098 7.667c-1.482-.028-2.936-.458-4.168-1.136v.101c0 4.483 3.198 8.207 7.391 9.065a9.22 9.22 0 0 1-2.419.304c-.591 0-1.187-.034-1.747-.157 1.195 3.654 4.587 6.34 8.62 6.427A18.539 18.539 0 0 1 2.207 36.77c-.757 0-1.482-.034-2.208-.126 4.087 2.635 8.93 4.14 14.152 4.14 16.976 0 26.258-14.062 26.258-26.252 0-.408-.014-.802-.034-1.193 1.831-1.299 3.369-2.922 4.624-4.79z" style="fill:"/></symbol><symbol id="icon-close-black" viewBox="0 0 45 45"><path d="M37.5 10.27 34.73 7.5 23.75 18.48 12.77 7.5 10 10.27l10.98 10.98L10 32.23 12.77 35l10.98-10.98L34.73 35l2.77-2.77-10.98-10.98L37.5 10.27z"/></symbol><symbol id="icon-send" viewBox="0 0 45 45"><path d="M45 0 0 25.313l14.381 5.326L36.562 9.844 19.69 32.606l.014.005-.017-.005v12.395l8.065-9.409 10.216 3.784L44.999.001z" style=""/></symbol><symbol id="icon-check" viewBox="0 0 45 45"><path d="M5.625 1.406h33.75A5.624 5.624 0 0 1 45 7.031v30.938a5.624 5.624 0 0 1-5.625 5.625H5.625A5.624 5.624 0 0 1 0 37.969V7.031a5.624 5.624 0 0 1 5.625-5.625z" style=""/><path  stroke="" stroke-width=".563" d="m11.129 23.208-.193-.185-2.906 2.753 10.24 9.769 21.513-20.523-2.887-2.754L18.27 30.02l-7.14-6.811z" style="fill:;stroke:"/></symbol><symbol id="icon-email" viewBox="0 0 45 45"><path d="M37.5 7.5h-30c-2.062 0-3.731 1.687-3.731 3.75l-.019 22.5A3.762 3.762 0 0 0 7.5 37.5h30a3.762 3.762 0 0 0 3.75-3.75v-22.5A3.761 3.761 0 0 0 37.5 7.5zm-.75 7.969-13.256 8.288c-.6.375-1.387.375-1.988 0L8.25 15.469c-.469-.3-.75-.806-.75-1.35 0-1.256 1.369-2.006 2.438-1.35l12.563 7.856 12.563-7.856c1.069-.656 2.438.094 2.438 1.35 0 .544-.281 1.05-.75 1.35z"/></symbol><symbol id="icon-phone" viewBox="0 0 45 45"><path d="m34.99 27.806-4.595-.525a3.603 3.603 0 0 0-2.967 1.031l-3.329 3.329a27.22 27.22 0 0 1-11.923-11.923l3.347-3.347a3.6 3.6 0 0 0 1.031-2.967l-.525-4.559a3.62 3.62 0 0 0-3.6-3.202h-3.13c-2.044 0-3.745 1.701-3.618 3.745.959 15.451 13.316 27.789 28.748 28.748 2.044.127 3.745-1.574 3.745-3.618v-3.13c.018-1.827-1.357-3.365-3.184-3.582z"/></symbol><symbol id="icon-person" viewBox="0 0 45 45"><path d="M22.5 22.5c4.144 0 7.5-3.356 7.5-7.5s-3.356-7.5-7.5-7.5S15 10.856 15 15s3.356 7.5 7.5 7.5zm0 3.75c-5.006 0-15 2.512-15 7.5v1.875A1.88 1.88 0 0 0 9.375 37.5h26.25a1.88 1.88 0 0 0 1.875-1.875V33.75c0-4.987-9.994-7.5-15-7.5z" style=""/></symbol></defs></svg>